<?xml version="1.0" encoding="UTF-8" standalone="no"?><!DOCTYPE svg PUBLIC "-//W3C//DTD SVG 1.1//EN" "http://www.w3.org/Graphics/SVG/1.1/DTD/svg11.dtd"><svg width="100%" height="100%" viewBox="0 0 2292 305" version="1.1" xmlns="http://www.w3.org/2000/svg" xmlns:xlink="http://www.w3.org/1999/xlink" xml:space="preserve" xmlns:serif="http://www.serif.com/" style="fill-rule:evenodd;clip-rule:evenodd;stroke-linejoin:round;stroke-miterlimit:2;"><g><path d="M251.347,19.061l-42.95,179.679l-53.878,-0l-28.718,-120.21l-28.973,120.21l-53.878,-0l-42.95,-179.679l47.271,-0l23.127,130.121l31.513,-130.121l47.525,-0l31.514,130.121l23.381,-130.121l47.016,-0Z" style="fill:#3b9bcc;fill-rule:nonzero;"/><path d="M328.098,55.149c10.844,-0 20.162,2.457 27.956,7.37c7.794,4.914 13.554,11.606 17.282,20.077l-0,-25.668l43.204,-0l-0,141.812l-43.204,-0l-0,-25.669c-3.728,8.472 -9.488,15.164 -17.282,20.077c-7.794,4.914 -17.112,7.371 -27.956,7.371c-11.69,-0 -22.153,-2.923 -31.386,-8.768c-9.234,-5.846 -16.52,-14.275 -21.857,-25.288c-5.337,-11.012 -8.005,-23.889 -8.005,-38.629c-0,-14.91 2.668,-27.829 8.005,-38.757c5.337,-10.928 12.623,-19.315 21.857,-25.16c9.233,-5.845 19.696,-8.768 31.386,-8.768Zm13.978,38.121c-9.319,0 -16.816,3.05 -22.492,9.149c-5.675,6.1 -8.513,14.571 -8.513,25.415c-0,10.843 2.838,19.315 8.513,25.414c5.676,6.099 13.173,9.149 22.492,9.149c9.149,0 16.646,-3.134 22.492,-9.403c5.845,-6.269 8.768,-14.656 8.768,-25.16c-0,-10.674 -2.923,-19.103 -8.768,-25.287c-5.846,-6.185 -13.343,-9.277 -22.492,-9.277Z" style="fill:#3b9bcc;fill-rule:nonzero;"/><path d="M526.838,161.381l-0,37.359l-19.569,-0c-16.604,-0 -29.523,-4.109 -38.757,-12.326c-9.234,-8.218 -13.851,-21.814 -13.851,-40.79l0,-52.099l-19.06,-0l-0,-36.597l19.06,-0l0,-34.818l43.459,0l-0,34.818l28.464,-0l-0,36.597l-28.464,-0l-0,52.861c-0,5.591 1.143,9.488 3.431,11.691c2.287,2.202 6.141,3.304 11.563,3.304l13.724,-0Z" style="fill:#3b9bcc;fill-rule:nonzero;"/><path d="M685.931,124.022c0,3.558 -0.423,7.454 -1.271,11.69l-98.353,0c0.508,10.674 3.219,18.341 8.133,23c4.913,4.659 11.182,6.989 18.806,6.989c6.439,0 11.776,-1.61 16.011,-4.829c4.236,-3.219 7.032,-7.37 8.387,-12.453l46,0c-1.864,9.997 -5.93,18.934 -12.199,26.812c-6.269,7.879 -14.232,14.063 -23.889,18.553c-9.658,4.49 -20.417,6.735 -32.277,6.735c-13.893,-0 -26.219,-2.923 -36.977,-8.768c-10.759,-5.846 -19.188,-14.275 -25.288,-25.288c-6.099,-11.012 -9.149,-23.889 -9.149,-38.629c0,-14.91 3.008,-27.829 9.022,-38.757c6.015,-10.928 14.444,-19.315 25.288,-25.16c10.843,-5.845 23.211,-8.768 37.104,-8.768c14.063,-0 26.431,2.88 37.105,8.641c10.674,5.76 18.934,13.851 24.779,24.27c5.845,10.42 8.768,22.407 8.768,35.962Zm-43.967,-6.608c0.17,-9.319 -2.329,-16.308 -7.497,-20.967c-5.167,-4.659 -11.563,-6.989 -19.188,-6.989c-7.963,0 -14.57,2.372 -19.823,7.116c-5.252,4.744 -8.217,11.691 -8.895,20.84l55.403,-0Z" style="fill:#3b9bcc;fill-rule:nonzero;"/><path d="M752.008,83.613c5.422,-8.641 12.411,-15.503 20.967,-20.586c8.556,-5.082 17.832,-7.624 27.829,-7.624l-0,46.508l-12.453,0c-11.522,0 -20.459,2.457 -26.812,7.37c-6.354,4.914 -9.531,13.216 -9.531,24.906l0,64.553l-43.458,-0l-0,-141.812l43.458,-0l0,26.685Z" style="fill:#3b9bcc;fill-rule:nonzero;"/><path d="M886.704,37.613c-6.608,0 -11.31,1.525 -14.105,4.575c-2.796,3.049 -4.363,7.963 -4.702,14.74l84.376,-0l-0,141.812l-43.713,-0l0,-105.215l-40.663,-0l0,105.215l-43.458,-0l-0,-105.215l-17.028,-0l0,-36.597l17.028,-0l-0,-1.525c-0,-17.62 4.956,-31.217 14.867,-40.79c9.912,-9.573 24.356,-14.359 43.332,-14.359c3.727,0 6.523,0.085 8.386,0.254l0,37.359l-4.32,-0.254Zm43.966,5.845c-7.963,0 -14.316,-1.99 -19.06,-5.972c-4.744,-3.982 -7.116,-9.276 -7.116,-15.884c-0,-6.438 2.372,-11.648 7.116,-15.63c4.744,-3.981 11.097,-5.972 19.06,-5.972c7.794,-0 14.063,1.991 18.807,5.972c4.744,3.982 7.116,9.192 7.116,15.63c0,6.438 -2.372,11.691 -7.116,15.757c-4.744,4.066 -11.013,6.099 -18.807,6.099Z" style="fill:#3b9bcc;fill-rule:nonzero;"/><rect x="986.328" y="10.674" width="43.458" height="188.066" style="fill:#3b9bcc;fill-rule:nonzero;"/><path d="M1140.08,161.381l0,37.359l-19.569,-0c-16.604,-0 -29.523,-4.109 -38.757,-12.326c-9.234,-8.218 -13.85,-21.814 -13.85,-40.79l-0,-52.099l-19.061,-0l-0,-36.597l19.061,-0l-0,-34.818l43.458,0l-0,34.818l28.464,-0l-0,36.597l-28.464,-0l-0,52.861c-0,5.591 1.144,9.488 3.431,11.691c2.287,2.202 6.142,3.304 11.563,3.304l13.724,-0Z" style="fill:#3b9bcc;fill-rule:nonzero;"/><path d="M1299.18,124.022c0,3.558 -0.423,7.454 -1.27,11.69l-98.354,0c0.509,10.674 3.22,18.341 8.133,23c4.913,4.659 11.182,6.989 18.807,6.989c6.438,0 11.775,-1.61 16.011,-4.829c4.235,-3.219 7.031,-7.37 8.386,-12.453l46,0c-1.864,9.997 -5.93,18.934 -12.199,26.812c-6.269,7.879 -14.232,14.063 -23.889,18.553c-9.658,4.49 -20.416,6.735 -32.276,6.735c-13.893,-0 -26.219,-2.923 -36.978,-8.768c-10.759,-5.846 -19.188,-14.275 -25.287,-25.288c-6.1,-11.012 -9.149,-23.889 -9.149,-38.629c-0,-14.91 3.007,-27.829 9.022,-38.757c6.014,-10.928 14.443,-19.315 25.287,-25.16c10.843,-5.845 23.212,-8.768 37.105,-8.768c14.062,-0 26.431,2.88 37.105,8.641c10.674,5.76 18.933,13.851 24.778,24.27c5.846,10.42 8.768,22.407 8.768,35.962Zm-43.966,-6.608c0.169,-9.319 -2.33,-16.308 -7.498,-20.967c-5.167,-4.659 -11.563,-6.989 -19.187,-6.989c-7.963,0 -14.571,2.372 -19.823,7.116c-5.253,4.744 -8.218,11.691 -8.895,20.84l55.403,-0Z" style="fill:#3b9bcc;fill-rule:nonzero;"/><path d="M1365.25,83.613c5.422,-8.641 12.411,-15.503 20.967,-20.586c8.556,-5.082 17.833,-7.624 27.829,-7.624l-0,46.508l-12.453,0c-11.521,0 -20.459,2.457 -26.812,7.37c-6.354,4.914 -9.531,13.216 -9.531,24.906l0,64.553l-43.458,-0l0,-141.812l43.458,-0l0,26.685Z" style="fill:#3b9bcc;fill-rule:nonzero;"/><path d="M1561.71,126.309l43.966,72.431l-50.32,-0l-31.259,-61.503l-10.929,61.503l-43.712,-0l33.039,-188.066l43.712,-0l-17.79,101.403l51.845,-55.149l51.083,-0l-69.635,69.381Z" style="fill:#4ec7c4;fill-rule:nonzero;"/><path d="M1715.21,55.149c12.538,-0 23.593,2.372 33.166,7.116c9.572,4.744 17.027,11.648 22.364,20.713c5.337,9.064 8.006,19.78 8.006,32.149c-0,5.082 -0.509,10.589 -1.525,16.519c-2.542,14.062 -7.879,26.261 -16.011,36.596c-8.133,10.336 -18.171,18.299 -30.116,23.89c-11.945,5.591 -24.779,8.387 -38.503,8.387c-12.707,-0 -23.889,-2.415 -33.547,-7.243c-9.657,-4.829 -17.154,-11.733 -22.491,-20.713c-5.337,-8.98 -8.006,-19.654 -8.006,-32.022c0,-5.252 0.509,-10.759 1.525,-16.519c2.542,-14.063 7.879,-26.304 16.011,-36.724c8.133,-10.42 18.256,-18.383 30.37,-23.889c12.114,-5.507 25.033,-8.26 38.757,-8.26Zm-5.337,37.613c-8.302,0 -15.799,2.965 -22.492,8.895c-6.692,5.93 -11.055,14.656 -13.088,26.177c-0.678,4.405 -1.017,7.539 -1.017,9.403c0,8.302 2.245,14.613 6.735,18.934c4.49,4.32 10.293,6.48 17.409,6.48c8.302,0 15.799,-2.965 22.492,-8.895c6.692,-5.93 11.055,-14.571 13.088,-25.922c0.508,-3.389 0.762,-6.523 0.762,-9.404c0,-8.302 -2.245,-14.655 -6.734,-19.06c-4.49,-4.405 -10.209,-6.608 -17.155,-6.608Z" style="fill:#4ec7c4;fill-rule:nonzero;"/><path d="M1901.24,55.149c15.08,-0 27.151,4.829 36.216,14.486c9.064,9.658 13.596,23.042 13.596,40.155c0,5.591 -0.508,11.605 -1.525,18.044c-2.71,14.74 -7.666,27.617 -14.867,38.629c-7.201,11.013 -15.969,19.442 -26.304,25.288c-10.335,5.845 -21.263,8.768 -32.784,8.768c-11.013,-0 -19.95,-2.457 -26.812,-7.371c-6.862,-4.913 -11.309,-11.605 -13.343,-20.077l-16.519,93.271l-43.712,-0l37.104,-209.414l43.459,-0l-4.575,25.668c5.083,-8.471 11.945,-15.163 20.586,-20.077c8.641,-4.913 18.468,-7.37 29.48,-7.37Zm-33.292,107.248c9.318,0 17.366,-3.05 24.143,-9.149c6.777,-6.099 11.183,-14.571 13.216,-25.414c0.508,-3.05 0.762,-5.846 0.762,-8.387c0,-8.302 -2.33,-14.74 -6.989,-19.315c-4.659,-4.574 -10.886,-6.862 -18.679,-6.862c-9.149,0 -17.197,3.092 -24.144,9.277c-6.946,6.184 -11.352,14.613 -13.215,25.287c-0.509,2.711 -0.763,5.421 -0.763,8.132c0,8.302 2.33,14.783 6.989,19.442c4.659,4.66 10.886,6.989 18.68,6.989Z" style="fill:#4ec7c4;fill-rule:nonzero;"/><path d="M2049.15,55.149c18.638,-0 33.251,4.956 43.84,14.867c10.589,9.912 15.884,23.17 15.884,39.774c-0,3.896 -0.424,8.64 -1.271,14.232c-0.677,4.066 -1.779,7.963 -3.304,11.69l-98.353,0c-0.339,3.389 -0.508,5.676 -0.508,6.862c-0,15.418 7.37,23.127 22.11,23.127c6.269,0 11.86,-1.61 16.774,-4.829c4.913,-3.219 8.471,-7.37 10.674,-12.453l46,0c-5.592,15.418 -15.291,27.956 -29.1,37.613c-13.808,9.658 -29.946,14.487 -48.414,14.487c-18.298,-0 -32.827,-5.083 -43.585,-15.249c-10.759,-10.166 -16.139,-24.228 -16.139,-42.188c0,-5.421 0.509,-11.182 1.525,-17.281c2.542,-14.402 7.794,-26.939 15.757,-37.613c7.963,-10.674 17.833,-18.849 29.608,-24.525c11.775,-5.676 24.609,-8.514 38.502,-8.514Zm15.503,62.265c0.508,-2.88 0.763,-5.422 0.763,-7.624c-0,-6.778 -2.118,-11.86 -6.354,-15.249c-4.236,-3.388 -9.573,-5.083 -16.011,-5.083c-7.963,0 -14.994,2.372 -21.094,7.116c-6.099,4.744 -10.335,11.691 -12.707,20.84l55.403,-0Z" style="fill:#4ec7c4;fill-rule:nonzero;"/><path d="M2232.64,55.403c13.894,0 24.695,3.939 32.404,11.818c7.709,7.878 11.563,19.018 11.563,33.42c0,4.913 -0.508,10.165 -1.525,15.756l-14.74,82.343l-43.204,-0l13.469,-77.26c0.509,-2.88 0.763,-5.506 0.763,-7.878c-0,-7.116 -2.033,-12.623 -6.1,-16.519c-4.066,-3.897 -9.742,-5.846 -17.027,-5.846c-8.641,0 -16.054,2.796 -22.238,8.387c-6.184,5.591 -10.123,13.554 -11.817,23.889l-13.216,75.227l-43.712,-0l24.906,-141.812l43.712,-0l-4.574,25.414c5.591,-8.302 12.834,-14.867 21.729,-19.696c8.895,-4.829 18.764,-7.243 29.607,-7.243Z" style="fill:#4ec7c4;fill-rule:nonzero;"/></g><path d="M7.068,304.738l2284.37,-0l-1713.28,-47.831l-571.093,47.831Z" style="fill:url(#_Linear1);"/><defs><linearGradient id="_Linear1" x1="0" y1="0" x2="1" y2="0" gradientUnits="userSpaceOnUse" gradientTransform="matrix(-2284.37,0,0,47.8305,2291.44,280.822)"><stop offset="0" style="stop-color:#4ec7c4;stop-opacity:1"/><stop offset="0.55" style="stop-color:#4abec6;stop-opacity:1"/><stop offset="1" style="stop-color:#3b9bcc;stop-opacity:1"/></linearGradient></defs></svg>