<?xml version="1.0" encoding="UTF-8" standalone="no"?><!DOCTYPE svg PUBLIC "-//W3C//DTD SVG 1.1//EN" "http://www.w3.org/Graphics/SVG/1.1/DTD/svg11.dtd"><svg width="100%" height="100%" viewBox="0 0 1264 532" version="1.1" xmlns="http://www.w3.org/2000/svg" xmlns:xlink="http://www.w3.org/1999/xlink" xml:space="preserve" xmlns:serif="http://www.serif.com/" style="fill-rule:evenodd;clip-rule:evenodd;stroke-linecap:round;"><g><path d="M392.24,339.68c0,105.939 -85.877,191.816 -191.815,191.816c-105.938,-0 -191.816,-85.877 -191.816,-191.816c0,-123.033 191.816,-319.538 191.816,-319.538c-0,-0 191.815,196.502 191.815,319.538Z" style="fill:#cef2fb;fill-rule:nonzero;stroke:#fff;stroke-width:15.99px;"/><circle cx="116.43" cy="414.588" r="26.549" style="fill:#fff;fill-opacity:0.87;"/><path d="M112.89,353.866c7.263,15.356 -13.168,31.084 -29.412,31.084c-16.243,-0 -26.844,-16.684 -29.411,-31.084c-9.129,-51.207 43.21,-145.005 59.363,-143.185c50.637,5.703 -32.984,74.583 -0.538,143.185l-0.002,0Z" style="fill:#fff;fill-opacity:0.77;fill-rule:nonzero;"/></g><g><text x="407.995px" y="342.33px" style="font-family:'OpenSans-CondensedBold', 'Open Sans Condensed', sans-serif;font-weight:700;font-stretch:condensed;font-size:232.265px;fill:#fff;">W<tspan x="563.491px 656.926px 721.822px 813.888px 881.325px 989.616px 1037.41px 1102.3px 1194.37px " y="342.33px 342.33px 342.33px 342.33px 342.33px 342.33px 342.33px 342.33px 342.33px ">aterï¬lter</tspan></text><text x="727.956px" y="493.998px" style="font-family:'OpenSans-CondensedBold', 'Open Sans Condensed', sans-serif;font-weight:700;font-stretch:condensed;font-size:156.088px;fill:#fff;">kopen.nl</text></g></svg>