<?xml version="1.0" encoding="UTF-8" standalone="no"?><!DOCTYPE svg PUBLIC "-//W3C//DTD SVG 1.1//EN" "http://www.w3.org/Graphics/SVG/1.1/DTD/svg11.dtd"><svg width="100%" height="100%" viewBox="0 0 6000 1811" version="1.1" xmlns="http://www.w3.org/2000/svg" xmlns:xlink="http://www.w3.org/1999/xlink" xml:space="preserve" xmlns:serif="http://www.serif.com/" style="fill-rule:evenodd;clip-rule:evenodd;stroke-linecap:round;"><path d="M1228.86,1066.84c0,267.801 -217.09,484.891 -484.891,484.891c-267.801,-0 -484.891,-217.09 -484.891,-484.891c-0,-311.017 484.891,-807.763 484.891,-807.763c-0,-0 484.891,496.738 484.891,807.763Z" style="fill:#fff;fill-rule:nonzero;stroke:#00ceff;stroke-width:125.67px;"/><circle cx="531.634" cy="1256.19" r="67.114" style="fill:#00ceff;fill-opacity:0.25;"/><path d="M522.684,1102.7c18.36,38.818 -33.287,78.577 -74.349,78.577c-41.063,-0.001 -67.86,-42.176 -74.35,-78.577c-23.078,-129.448 109.231,-366.559 150.066,-361.959c128.004,14.417 -83.382,188.539 -1.362,361.959l-0.005,0Z" style="fill:#00ceff;fill-opacity:0.35;fill-rule:nonzero;"/><text x="1509.54px" y="991.791px" style="font-family:'OpenSans-CondensedBold', 'Open Sans Condensed', sans-serif;font-weight:700;font-stretch:condensed;font-size:1053.24px;fill:#fff;">W<tspan x="2327.76px 2819.41px " y="991.791px 991.791px ">at</tspan>erï¬lter</text><text x="3789.28px" y="1545.33px" style="font-family:'OpenSans-CondensedBold', 'Open Sans Condensed', sans-serif;font-weight:700;font-stretch:condensed;font-size:651.864px;fill:#fff;">kopen.nl</text></svg>